:SAMPLES-PER-SECOND 30
:FRAME-RANGE 1-3549
:FULLY-SPECIFIED
:DEGREES
1553
root  -27.9688 38.9721 -95.8478 1.47507 -25.6384 1.54335
RightUpLeg  -23.2398 2.15163 -6.95981
RightLeg  6.47198 7.98474 -1.4669
RightFoot  -2.71901 -1.05518 13.6893
RightToes  1.218e-010 1.26228e-014 -6.01869e-014
Spine  -6.26402 0.33934 -0.400174
Spine1  8.65165 0.925884 -1.87152
HEad  3.6429 40.136 -7.51971
LeftShoulder1  0.96197 -0.426105 -19.5285
LeftArm  27.5128 -0.628088 -54.213
LeftForeArm  26.1798 -15.7137 -9.04348
LeftHand  -0.0298986 5.22206 3.60817
RightShoulder  1.53193 1.33889 26.9638
RightArm  -27.296 5.5639 47.7446
RightForeArm  73.5973 -4.88883 1.88407
RightHand  0.141203 -6.73238 -13.9238
LeftUpLeg  -0.837901 -0.350458 -7.30974
LeftLeg  15.5674 -7.1285 -1.09203
LeftFoot  -14.656 0.346976 8.92138
LeftToes  -1.43952e-010 7.51141e-011 -1.22592e-011
1554
root  -28.5367 38.8633 -95.1242 1.64122 -24.3436 1.66678
RightUpLeg  -23.8938 -0.240656 -5.76793
RightLeg  3.69063 8.15242 -1.70886
RightFoot  -4.33426 -0.836161 13.1194
RightToes  1.218e-010 1.26228e-014 -6.01869e-014
Spine  -6.25168 0.179847 -0.432788
Spine1  8.46824 0.7828 -1.81402
HEad  2.79169 39.8828 -8.34998
LeftShoulder1  0.952807 -0.334882 -19.9514
LeftArm  27.9989 -0.632914 -53.6241
LeftForeArm  26.8935 -15.1107 -9.55971
LeftHand  -0.0256361 5.38998 3.48696
RightShoulder  1.47262 1.16455 26.9136
RightArm  -27.8082 3.78645 46.5816
RightForeArm  72.6614 -4.90107 1.73303
RightHand  0.142287 -6.75508 -13.8032
LeftUpLeg  0.435652 -0.217537 -6.93882
LeftLeg  15.7159 -8.64093 -1.44673
LeftFoot  -15.8307 0.430689 8.53857
LeftToes  -1.43952e-010 7.51141e-011 -1.22592e-011
1555
root  -29.1253 38.7114 -94.3471 1.50009 -23.249 1.92148
RightUpLeg  -24.387 0.0778219 -5.56305
RightLeg  3.66946 6.13964 -1.76937
RightFoot  -5.43198 -0.710484 12.9935
RightToes  1.218e-010 1.26228e-014 -6.01869e-014
Spine  -6.65916 0.0713737 -0.486334
Spine1  9.16296 0.681695 -1.83909
HEad  1.66822 39.6803 -9.53686
LeftShoulder1  0.997454 -0.457367 -20.3107
LeftArm  26.8439 -0.675506 -53.0873
LeftForeArm  28.4644 -13.8545 -10.4468
LeftHand  -0.0249395 5.41265 3.587
RightShoulder  1.42145 1.02701 26.7655
RightArm  -28.6077 2.51275 45.6625
RightForeArm  72.1348 -4.85632 1.34377
RightHand  0.131232 -6.67169 -13.6933
LeftUpLeg  1.93537 -0.070441 -6.67001
LeftLeg  16.1663 -9.73894 -1.73191
LeftFoot  -17.151 0.52379 8.27188
LeftToes  -1.43952e-010 7.51141e-011 -1.22592e-011
1556
root  -29.7289 38.5693 -93.5233 1.35883 -22.1306 2.23114
RightUpLeg  -24.9699 1.65436 -6.031
RightLeg  6.20156 3.96041 -1.45946
RightFoot  -5.27707 -0.610463 10.8138
RightToes  1.218e-010 1.26228e-014 -6.01869e-014
Spine  -7.03365 -0.0842768 -0.563317
Spine1  9.6021 0.458005 -1.73502
HEad  1.19626 39.7728 -10.5226
LeftShoulder1  1.00688 -0.460267 -20.5566
LeftArm  24.7117 -0.349669 -52.6023
LeftForeArm  30.7566 -12.0578 -11.5316
LeftHand  -0.020764 5.58345 3.49247
RightShoulder  1.35831 0.843621 26.6809
RightArm  -29.1942 1.29272 44.7045
RightForeArm  71.8158 -4.8203 1.05636
RightHand  0.140492 -6.76735 -13.5594
LeftUpLeg  3.44561 -0.0780934 -6.41025
LeftLeg  16.638 -10.6927 -2.00602
LeftFoot  -18.1084 0.580783 7.96564
LeftToes  -1.43952e-010 7.51141e-011 -1.22592e-011
1557
root  -30.3526 38.4653 -92.6281 1.2494 -20.882 2.46394
RightUpLeg  -25.0533 4.95195 -7.01501
RightLeg  9.67454 0.372651 -1.46641
RightFoot  -5.42387 -0.545157 9.80829
RightToes  1.218e-010 1.26228e-014 -6.01869e-014
Spine  -7.56843 -0.214348 -0.439902
Spine1  9.97484 0.172823 -1.50065
HEad  1.5524 39.7457 -10.8553
LeftShoulder1  1.0161 -0.475102 -20.7055
LeftArm  22.1113 0.380118 -52.1393
LeftForeArm  33.5149 -9.99489 -12.5534
LeftHand  -0.0174591 5.75021 3.28192
RightShoulder  1.24278 0.48132 26.7443
RightArm  -29.58 -0.144654 43.5903
RightForeArm  71.2642 -4.81491 0.895961
RightHand  0.151277 -6.87461 -13.4564
LeftUpLeg  5.1763 -0.553403 -6.17547
LeftLeg  16.8249 -11.4525 -2.07459
LeftFoot  -18.574 0.552792 6.96894
LeftToes  -1.43952e-010 7.51141e-011 -1.22592e-011
1558
root  -30.9346 38.5339 -91.7274 1.58441 -19.624 2.22926
RightUpLeg  -24.5593 6.70114 -7.05157
RightLeg  10.9092 -0.192732 -1.94686
RightFoot  -1.80418 -0.93003 10.9691
RightToes  1.218e-010 1.26228e-014 -6.01869e-014
Spine  -8.28085 -0.241284 0.734314
Spine1  10.3099 -0.0566006 -1.2464
HEad  1.89361 39.8158 -11.236
LeftShoulder1  0.99333 -0.35235 -21.0033
LeftArm  19.8589 1.29167 -51.4533
LeftForeArm  35.9008 -7.93431 -13.4085
LeftHand  -0.0174017 5.78437 3.11893
RightShoulder  1.12093 0.0794235 27.0261
RightArm  -29.7192 -1.92216 42.2402
RightForeArm  70.3638 -4.85104 0.900578
RightHand  0.107718 -6.5071 -13.2765
LeftUpLeg  6.88154 -1.70793 -5.59836
LeftLeg  16.1259 -11.7108 -1.9384
LeftFoot  -17.7938 0.44251 5.94615
LeftToes  -1.43952e-010 7.51141e-011 -1.22592e-011
1559
root  -31.4944 38.5584 -90.7952 2.00363 -19.154 1.66656
RightUpLeg  -24.8819 8.82602 -7.16579
RightLeg  13.6046 -2.27541 -1.66249
RightFoot  0.583135 -1.24278 11.8983
RightToes  1.218e-010 1.26228e-014 -6.01869e-014
Spine  -8.3552 -0.0171847 2.54456
Spine1  9.91138 0.0530859 -1.41591
HEad  1.61914 40.0053 -12.2505
LeftShoulder1  0.921592 0.0101271 -21.8644
LeftArm  16.2681 2.29491 -50.6235
LeftForeArm  38.6082 -5.36477 -14.0991
LeftHand  -0.0107542 6.07369 3.16325
RightShoulder  1.06894 -0.0838438 27.0805
RightArm  -29.0806 -3.61341 40.9988
RightForeArm  69.1794 -4.97459 1.35823
RightHand  0.165712 -6.94995 -13.8544
LeftUpLeg  7.84073 -3.76219 -5.10665
LeftLeg  17.0083 -10.3182 -1.91091
LeftFoot  -17.0584 0.313884 4.2313
LeftToes  -1.43952e-010 7.51141e-011 -1.22592e-011
1560
root  -32.0539 38.5734 -89.8787 2.52191 -19.1776 0.996689
RightUpLeg  -24.7674 7.86574 -6.1996
RightLeg  15.8799 -1.57399 -0.810803
RightFoot  -0.151537 -1.33128 13.5212
RightToes  1.218e-010 1.26228e-014 -6.01869e-014
Spine  -8.39244 0.210228 3.88003
Spine1  9.6042 0.0771483 -1.11632
HEad  0.653389 40.5738 -13.7687
LeftShoulder1  0.815941 0.452384 -22.533
LeftArm  10.8501 3.82435 -50.3139
LeftForeArm  41.4804 -2.61816 -14.2471
LeftHand  -0.0122784 5.96924 3.2939
RightShoulder  1.09677 0.0321153 26.7565
RightArm  -28.881 -4.53336 40.1986
RightForeArm  68.3133 -5.03277 1.506
RightHand  0.148237 -6.81581 -13.7217
LeftUpLeg  7.97241 -5.84766 -4.42399
LeftLeg  19.2046 -8.41824 -2.44915
LeftFoot  -15.855 0.17607 2.05219
LeftToes  -1.43952e-010 7.51141e-011 -1.22592e-011
1561
root  -32.5891 38.7195 -89.0386 3.11467 -18.8091 0.52681
RightUpLeg  -23.7304 5.30192 -4.66397
RightLeg  16.1895 0.61435 -0.124708
RightFoot  -0.468895 -1.22691 12.809
RightToes  1.218e-010 1.26228e-014 -6.01869e-014
Spine  -8.70152 0.172387 4.5519
Spine1  9.69569 -0.230181 -0.256165
HEad  -0.604308 41.2376 -15.0068
LeftShoulder1  0.80606 0.480281 -22.4615
LeftArm  7.09234 6.08464 -50.4254
LeftForeArm  41.8385 -1.16122 -14.037
LeftHand  -0.0199621 5.6649 3.13459
RightShoulder  1.11104 0.0634539 26.8824
RightArm  -28.5223 -4.42303 39.4479
RightForeArm  68.2786 -5.06507 1.68924
RightHand  0.14007 -6.78647 -13.3646
LeftUpLeg  7.40916 -6.60734 -3.53934
LeftLeg  21.6829 -7.77378 -3.0585
LeftFoot  -13.0115 0.0730476 -0.344833
LeftToes  -1.43952e-010 7.51141e-011 -1.22592e-011
1562
root  -33.0872 38.886 -88.3053 3.76222 -18.0236 0.0610046
RightUpLeg  -22.7006 5.39976 -3.59447
RightLeg  16.1312 -0.0700951 -0.607553
RightFoot  -0.843666 -1.04478 11.2758
RightToes  1.218e-010 1.26228e-014 -6.01869e-014
Spine  -8.92261 -0.0592189 5.23733
Spine1  9.96406 -0.606437 0.453437
HEad  -1.69536 41.6858 -15.2975
LeftShoulder1  0.870541 0.149649 -21.458
LeftArm  5.07054 8.11016 -51.0505
LeftForeArm  41.5278 -0.286529 -13.9077
LeftHand  -0.0255835 5.43836 2.57778
RightShoulder  1.02751 -0.271763 27.7834
RightArm  -27.9602 -3.31203 38.6856
RightForeArm  68.5336 -5.10135 1.96182
RightHand  0.152378 -6.90502 -13.294
LeftUpLeg  5.45458 -5.34383 -1.99194
LeftLeg  25.8951 -8.40597 -4.08738
LeftFoot  -9.30774 0.116772 -3.4339
LeftToes  -1.43952e-010 7.51141e-011 -1.22592e-011
1563
root  -33.5595 38.9422 -87.6303 4.30484 -17.1205 -0.455841
RightUpLeg  -22.1538 4.59959 -2.4316
RightLeg  17.0726 -0.0638121 -0.638523
RightFoot  -1.8266 -0.80877 9.54675
RightToes  1.218e-010 1.26228e-014 -6.01869e-014
Spine  -8.44601 -0.284649 5.54602
Spine1  9.55932 -1.051 1.78105
HEad  -2.50025 41.9438 -15.6268
LeftShoulder1  0.918258 -0.0319821 -21.3828
LeftArm  5.56539 9.26522 -51.0437
LeftForeArm  41.6304 -0.0696163 -14.0774
LeftHand  -0.0294486 5.35496 1.96656
RightShoulder  0.990611 -0.391968 27.9085
RightArm  -27.3107 -2.70901 38.4818
RightForeArm  68.1936 -5.17648 2.33102
RightHand  0.134072 -6.74215 -13.2863
LeftUpLeg  2.26043 -2.41376 0.139404
LeftLeg  32.1884 -9.10415 -5.78716
LeftFoot  -5.71034 0.389428 -7.21709
LeftToes  -1.43952e-010 7.51141e-011 -1.22592e-011
